<?xml version="1.0" standalone="no"?><!DOCTYPE svg PUBLIC "-//W3C//DTD SVG 1.1//EN" "http://www.w3.org/Graphics/SVG/1.1/DTD/svg11.dtd"><svg t="1723888614534" class="icon" viewBox="0 0 1024 1024" version="1.1" xmlns="http://www.w3.org/2000/svg" p-id="6912" width="32" height="32" xmlns:xlink="http://www.w3.org/1999/xlink"><path d="M1020.376615 906.791385a34.264615 34.264615 0 0 0-47.655384-19.219693l-62.227693 28.829539a531.849846 531.849846 0 0 1-58.683076 21.110154l119.099076-336.187077c12.839385-40.329846-7.325538-84.519385-45.843692-97.988923L840.861538 472.615385V268.996923c0-42.299077-32.925538-76.878769-73.255384-76.878769H675.918769v-76.878769C675.918769 51.987692 626.451692 0 566.035692 0H456.073846c-60.416 0-109.883077 51.908923-109.883077 115.239385v76.878769H254.582154c-40.329846 0-73.255385 34.579692-73.255385 76.878769v209.368615l-69.632 24.969847a71.049846 71.049846 0 0 0-40.329846 40.329846 83.495385 83.495385 0 0 0-1.811692 59.628307l120.910769 340.04677c-23.788308-5.828923-47.655385-11.579077-69.632-23.079385l-69.632-32.689231a34.264615 34.264615 0 0 0-47.576615 19.219693 37.257846 37.257846 0 0 0 18.274461 49.939692l67.741539 32.689231c42.220308 19.219692 84.283077 30.72 130.126769 34.579692h31.113846c42.141538 0 84.283077-7.719385 124.612923-21.110154a381.558154 381.558154 0 0 1 120.910769-21.188923h31.113846a385.181538 385.181538 0 0 1 91.608616 17.329231l12.839384 3.859692c31.192615 9.609846 60.494769 15.36 91.608616 19.219692h11.027692c7.325538 0 14.651077 0 21.976616 1.890462h18.274461c9.216 0 16.541538 0 25.678769-1.890462h1.811693l11.027692-1.96923a427.874462 427.874462 0 0 0 128.236308-36.470154l62.227692-28.829539c16.541538-5.750154 25.678769-28.829538 16.541538-48.04923zM419.446154 115.239385c0-21.110154 16.541538-38.360615 36.627692-38.360616h109.961846c20.164923 0 36.627692 17.329231 36.627693 38.360616v76.878769H419.446154v-76.878769zM769.417846 949.169231h-23.867077c-3.623385 0-9.137231 0-12.839384-1.969231a354.540308 354.540308 0 0 1-62.227693-11.500308l-12.839384-3.859692a550.912 550.912 0 0 0-111.773539-23.000615V447.645538l355.406769 128.708924-131.859692 372.736zM254.582154 268.996923h512.945231V441.895385l-174.08-63.409231c-23.788308-7.719385-47.576615-13.390769-71.364923-13.390769-23.867077 0-47.655385 3.780923-71.443693 13.390769l-196.056615 69.159384V268.996923zM474.427077 455.286154v453.474461a484.745846 484.745846 0 0 0-146.510769 28.75077c-18.353231 5.828923-38.596923 11.579077-56.871385 11.579077L137.294769 576.354462l337.132308-121.068308z" p-id="6913" fill="#ffffff"></path></svg>