<?xml version="1.0" standalone="no"?><!DOCTYPE svg PUBLIC "-//W3C//DTD SVG 1.1//EN" "http://www.w3.org/Graphics/SVG/1.1/DTD/svg11.dtd"><svg t="1723890775693" class="icon" viewBox="0 0 1170 1024" version="1.1" xmlns="http://www.w3.org/2000/svg" p-id="42405" width="36.5625" height="32" xmlns:xlink="http://www.w3.org/1999/xlink"><path d="M285.935909 226.894994c-155.062857 0-281.219657 126.788754-281.219658 282.629852 0 140.680046 201.131154 357.838263 240.903315 401.220754 39.783863 43.405897 39.783863 43.405897 80.73216-0.140434 40.234423-44.353829 240.80384-260.681143 240.80384-401.08032 0-155.841097-126.1568-282.624-281.219657-282.624z m-2.574629 422.777417c-76.624457 0-138.971429-62.036846-138.971429-138.286811 0-76.232411 62.346971-138.269257 138.971429-138.269257 76.618606 0 138.971429 62.036846 138.971429 138.269257 0 76.279223-62.346971 138.286811-138.971429 138.286811z m587.027017-161.399954c28.490606-31.41632 170.528183-184.612571 170.528183-284.040046 0-110.363794-89.33376-200.159817-199.14752-200.159817-109.807909 0-199.153371 89.790171-199.153371 200.159817 0 99.626423 142.429623 253.407817 170.5984 284.127818 28.168777 30.737554 28.168777 30.737554 57.174308-0.087772z m-128.866011-282.723474c0-53.98528 44.149029-97.917806 98.421028-97.917806 54.260297 0 98.415177 43.932526 98.415177 97.917806 0 54.014537-44.149029 97.929509-98.415177 97.929508-54.272 0-98.421029-43.932526-98.421028-97.929508z m411.080411 527.079131c-20.216686-41.117989-61.861303-76.653714-123.757714-105.653394-54.453394-25.512229-112.306469-40.012069-141.955657-46.378423a375.56224 375.56224 0 0 0-10.819292-2.106514c-22.481189-4.142811-32.100937-7.677074-36.138423-13.165714-5.617371-7.606857-14.160457-12.522057-23.651474-12.522058h-2.545371c-23.616366 0-37.800229 26.17344-24.751543 45.758172 5.863131 8.788846 13.668937 16.255269 23.3472 22.247131 17.460663 10.801737 36.969326 14.394514 52.645303 17.290972 3.300206 0.602697 6.413166 1.176137 9.05216 1.743725 27.109669 5.828023 79.889554 19.034697 128.877714 41.978149 48.367909 22.645029 81.206126 49.432869 94.98624 77.467063 11.667749 23.709989 10.368731 49.649371-3.938011 79.29856a57.595611 57.595611 0 0 1-6.38976 10.140526l-14.687086 18.941074-0.257463 0.333531c-15.225417 20.187429-79.374629 67.361646-180.539977 84.231315-60.181943 10.041051-124.898743 8.309029-192.342309-5.16096-74.594011-14.897737-152.675474-44.248503-232.442148-87.355978a29.666743 29.666743 0 0 0-39.719497 11.234743l-0.813349 1.404343a29.385874 29.385874 0 0 0 11.416137 40.597212c85.15584 46.021486 168.995109 77.449509 249.563429 93.546788 42.63936 8.507977 84.41856 12.773669 124.980663 12.773669a542.837029 542.837029 0 0 0 89.41568-7.261623c52.721371-8.794697 103.084617-25.956937 145.630354-49.614263 32.054126-17.829303 59.479771-39.432777 73.435428-57.841371l14.570058-18.80064a118.204709 118.204709 0 0 0 13.060388-20.907155c22.615771-46.840686 23.873829-91.317394 3.76832-132.21888z" p-id="42406" fill="#ffffff"></path></svg>