<?xml version="1.0" standalone="no"?><!DOCTYPE svg PUBLIC "-//W3C//DTD SVG 1.1//EN" "http://www.w3.org/Graphics/SVG/1.1/DTD/svg11.dtd"><svg t="1723869612901" class="icon" viewBox="0 0 1024 1024" version="1.1" xmlns="http://www.w3.org/2000/svg" p-id="6846" xmlns:xlink="http://www.w3.org/1999/xlink" width="32" height="32"><path d="M886.293763 886.211716a470.753575 470.753575 0 0 1-660.140433 5.350345l33.868453-33.868452a422.754067 422.754067 0 0 0 597.753873-597.753873l33.638055-33.868453a470.727975 470.727975 0 0 1-5.119948 660.140433z m-434.657944-716.792653L621.029282 0.127999l169.291065 169.291064-169.291065 169.393464-169.393463-169.393464z m169.393463-101.579758l-101.579758 101.579758 101.579758 101.579759 101.426161-101.707757-101.579759-101.579759z m157.745584 271.075621a310.985612 310.985612 0 0 1-439.752293 439.777892l33.868453-33.868452a263.114103 263.114103 0 0 0 371.938587-372.040987l33.945253-33.868453z m-259.325342-101.810156l33.868452 33.868453-33.868452 33.868452 146.686496 146.686497-90.290274 90.290274 33.868452 33.868453-33.868452 33.868453-33.919653-33.868453-90.290274 90.367074L112.848891 327.395044l214.551401-214.551401 158.001581 158.001581 33.970851-33.740454z m-338.684529 90.290274l270.870824 270.973223 146.712096-146.712096L327.400292 180.682948l-146.712096 146.712096z m73.21525 208.84266l-16.998226-16.998226 33.868453-33.868453 33.868453 33.868453-33.868453 33.868453 67.608907 67.711306-168.958268 169.393463-169.393464-169.291064 169.291065-169.291065 84.709531 84.479134z m-84.479134 186.26369l101.579758-101.579758-101.579758-101.55416-101.579759 101.579759 101.579759 101.554159z" fill="#ffffff" p-id="6847"></path></svg>